<svg xmlns="http://www.w3.org/2000/svg" version="1.1" xmlns:xlink="http://www.w3.org/1999/xlink" xmlns:svgjs="http://svgjs.dev/svgjs" width="1440" height="560" preserveAspectRatio="none" viewBox="0 0 1440 560"><g mask="url(&quot;#SvgjsMask1988&quot;)" fill="none"><rect width="1440" height="560" x="0" y="0" fill="url(&quot;#SvgjsLinearGradient1989&quot;)"></rect><path d="M1440 0L897.13 0L1440 246.97z" fill="rgba(255, 255, 255, .1)"></path><path d="M897.13 0L1440 246.97L1440 398.48L726.59 0z" fill="rgba(255, 255, 255, .075)"></path><path d="M726.59 0L1440 398.48L1440 434.63L389.72 0z" fill="rgba(255, 255, 255, .05)"></path><path d="M389.72 0L1440 434.63L1440 450.13L292.64000000000004 0z" fill="rgba(255, 255, 255, .025)"></path><path d="M0 560L7.09 560L0 526.11z" fill="rgba(0, 0, 0, .1)"></path><path d="M0 526.11L7.09 560L558.5 560L0 256.66z" fill="rgba(0, 0, 0, .075)"></path><path d="M0 256.66L558.5 560L597.41 560L0 152.02000000000004z" fill="rgba(0, 0, 0, .05)"></path><path d="M0 152.02000000000004L597.41 560L953.02 560L0 146.75000000000003z" fill="rgba(0, 0, 0, .025)"></path></g><defs><mask id="SvgjsMask1988"><rect width="1440" height="560" fill="#ffffff"></rect></mask><linearGradient x1="15.28%" y1="-39.29%" x2="84.72%" y2="139.29%" gradientUnits="userSpaceOnUse" id="SvgjsLinearGradient1989"><stop stop-color="rgba(145, 192, 241, 1)" offset="0"></stop><stop stop-color="rgba(0, 0, 0, 1)" offset="1"></stop></linearGradient></defs></svg>