<svg xmlns="http://www.w3.org/2000/svg" version="1.1" xmlns:xlink="http://www.w3.org/1999/xlink" xmlns:svgjs="http://svgjs.dev/svgjs" width="1440" height="560" preserveAspectRatio="none" viewBox="0 0 1440 560"><g mask="url(&quot;#SvgjsMask1023&quot;)" fill="none"><rect width="1440" height="560" x="0" y="0" fill="#0e2a47"></rect><path d="M162.78547105155226 212.9640399095532L245.8879439692748 345.9557967684831 378.87970082820465 262.8533238507605 295.7772279104821 129.86156699183067z" fill="rgba(220, 4, 99, 0.4)" class="triangle-float2"></path><path d="M413.13 220.67 a168.87 168.87 0 1 0 337.74 0 a168.87 168.87 0 1 0 -337.74 0z" fill="rgba(220, 4, 99, 0.4)" class="triangle-float1"></path><path d="M905.0768416743811 473.47265732855215L1001.1015488812552 428.69560098589517 860.299785331724 377.44795012167793z" fill="rgba(220, 4, 99, 0.4)" class="triangle-float2"></path><path d="M309.99792182320647 421.2307810849798L271.6808211937228 321.4113212443399 141.1101817475048 428.79670210888537z" fill="rgba(220, 4, 99, 0.4)" class="triangle-float3"></path><path d="M38.065,348.98C59.394,347.906,76.276,332.876,86.714,314.245C96.88,296.099,99.191,274.824,90.087,256.122C79.65,234.682,61.908,214.62,38.065,214.31C13.846,213.995,-4.68,233.516,-16.358,254.736C-27.55,275.073,-31.493,299.512,-19.885,319.614C-8.278,339.713,14.884,350.148,38.065,348.98" fill="rgba(220, 4, 99, 0.4)" class="triangle-float3"></path><path d="M166.32133365363373 603.5283003645003L252.5996862031298 577.1503608444123 226.2217466830418 490.8720082949162 139.9433941335457 517.2499478150042z" fill="rgba(220, 4, 99, 0.4)" class="triangle-float1"></path><path d="M506.37070887426177-20.032183548596333L541.3865711873464 87.7355594323795 649.1543141683222 52.71969711929488 614.1384518552376-55.04804586168095z" fill="rgba(220, 4, 99, 0.4)" class="triangle-float2"></path><path d="M157.011,657.509C212.379,660.047,269.258,633.773,293.625,583.99C316.036,538.203,286.252,489.362,260.985,445.087C235.381,400.221,208.665,345.217,157.011,344.606C104.834,343.988,72.449,396.119,48.686,442.575C27.524,483.946,19.584,530.888,40.498,572.385C63.7,618.421,105.513,655.148,157.011,657.509" fill="rgba(220, 4, 99, 0.4)" class="triangle-float3"></path><path d="M862.4840853168098 129.34460809046567L975.1867833224004 81.50515106821601 814.6446282945601 16.641910084875065z" fill="rgba(220, 4, 99, 0.4)" class="triangle-float2"></path><path d="M695.8426618407339 464.14255410335295L789.8800916720653 454.25882195458115 779.9963595232936 360.2213921232497 685.9589296919621 370.1051242720215z" fill="rgba(220, 4, 99, 0.4)" class="triangle-float1"></path><path d="M356.4633130221692 486.7246773507414L280.58526564057274 360.16935784360396 216.09027745277754 471.87795421842z" fill="rgba(220, 4, 99, 0.4)" class="triangle-float2"></path><path d="M1260.4402535519428 286.23235777224875L1311.484261745778 176.76812895002234 1150.9760247297163 235.18834957841347z" fill="rgba(220, 4, 99, 0.4)" class="triangle-float2"></path><path d="M1330.767,343.688C1369.83,344.905,1404.421,320.692,1424.378,287.09C1444.805,252.697,1451.272,209.655,1430.771,175.306C1410.687,141.656,1369.94,129.141,1330.767,130.243C1293.703,131.286,1258.056,148.255,1240.055,180.671C1222.518,212.25,1229.174,249.994,1246.738,281.558C1264.892,314.183,1293.449,342.526,1330.767,343.688" fill="rgba(220, 4, 99, 0.4)" class="triangle-float1"></path><path d="M1192.1259217629067 283.2028282222332L1057.0436307220325 332.22302128841784 1151.8487131295824 414.6358221028755z" fill="rgba(220, 4, 99, 0.4)" class="triangle-float3"></path></g><defs><mask id="SvgjsMask1023"><rect width="1440" height="560" fill="#ffffff"></rect></mask><style>
                @keyframes float1 {
                    0%{transform: translate(0, 0)}
                    50%{transform: translate(-10px, 0)}
                    100%{transform: translate(0, 0)}
                }

                .triangle-float1 {
                    animation: float1 5s infinite;
                }

                @keyframes float2 {
                    0%{transform: translate(0, 0)}
                    50%{transform: translate(-5px, -5px)}
                    100%{transform: translate(0, 0)}
                }

                .triangle-float2 {
                    animation: float2 4s infinite;
                }

                @keyframes float3 {
                    0%{transform: translate(0, 0)}
                    50%{transform: translate(0, -10px)}
                    100%{transform: translate(0, 0)}
                }

                .triangle-float3 {
                    animation: float3 6s infinite;
                }
            </style></defs></svg>